<svg xmlns="http://www.w3.org/2000/svg" xmlns:xlink="http://www.w3.org/1999/xlink" width="113" height="96" viewBox="0 0 113 96">
  <defs>
    <clipPath id="clip-path">
      <rect id="Rectangle_8" data-name="Rectangle 8" width="113" height="96" transform="translate(797 3995)" fill="#287094" stroke="#707070" stroke-width="1"/>
    </clipPath>
  </defs>
  <g id="Mask_Group_2" data-name="Mask Group 2" transform="translate(-797 -3995)" clip-path="url(#clip-path)">
    <path id="github" d="M50.086,2.087C22.414,2.087,0,24.125,0,51.3A49.3,49.3,0,0,0,34.246,98c2.5.463,3.423-1.06,3.423-2.367,0-1.169-.042-4.266-.063-8.369-13.932,2.968-16.871-6.6-16.871-6.6-2.279-5.681-5.572-7.2-5.572-7.2-4.537-3.051.351-2.988.351-2.988,5.029.342,7.672,5.071,7.672,5.071,4.466,7.525,11.724,5.351,14.588,4.095a10.421,10.421,0,0,1,3.172-6.582C29.822,71.828,18.131,67.6,18.131,48.738a18.8,18.8,0,0,1,5.155-13.206c-.563-1.244-2.254-6.248.438-13.027,0,0,4.195-1.319,13.774,5.046a48.022,48.022,0,0,1,25.043,0c9.516-6.365,13.711-5.046,13.711-5.046,2.692,6.778,1,11.783.5,13.027a18.88,18.88,0,0,1,5.134,13.206c0,18.908-11.708,23.069-22.852,24.279,1.753,1.478,3.381,4.5,3.381,9.107,0,6.586-.063,11.879-.063,13.477,0,1.29.877,2.83,3.443,2.337A49.15,49.15,0,0,0,100.172,51.3C100.172,24.125,77.746,2.087,50.086,2.087Z" transform="translate(803.414 3992.913)" fill="#287094"/>
  </g>
</svg>
