<svg xmlns="http://www.w3.org/2000/svg" xmlns:xlink="http://www.w3.org/1999/xlink" width="113" height="96" viewBox="0 0 113 96">
  <defs>
    <clipPath id="clip-path">
      <rect id="Rectangle_10" data-name="Rectangle 10" width="113" height="96" transform="translate(1223 3995)" fill="#287094" stroke="#707070" stroke-width="1"/>
    </clipPath>
  </defs>
  <g id="Mask_Group_4" data-name="Mask Group 4" transform="translate(-1223 -3995)" clip-path="url(#clip-path)">
    <g id="instagram_1_" data-name="instagram (1)" transform="translate(1231.5 3995)">
      <path id="Path_3" data-name="Path 3" d="M57.188,48A9.188,9.188,0,1,1,48,38.813,9.187,9.187,0,0,1,57.188,48Zm0,0" fill="#287094"/>
      <path id="Path_4" data-name="Path 4" d="M69.486,31.745a9.127,9.127,0,0,0-5.231-5.231,15.25,15.25,0,0,0-5.117-.948C56.231,25.433,55.359,25.4,48,25.4s-8.232.028-11.138.16a15.259,15.259,0,0,0-5.117.949,9.131,9.131,0,0,0-5.232,5.231,15.255,15.255,0,0,0-.948,5.118C25.432,39.769,25.4,40.641,25.4,48s.029,8.231.161,11.138a15.25,15.25,0,0,0,.948,5.117,9.127,9.127,0,0,0,5.231,5.231,15.231,15.231,0,0,0,5.118.949c2.906.133,3.777.16,11.137.16s8.232-.028,11.138-.16a15.231,15.231,0,0,0,5.118-.949,9.127,9.127,0,0,0,5.231-5.231,15.264,15.264,0,0,0,.949-5.117c.133-2.907.16-3.779.16-11.138s-.028-8.232-.16-11.138A15.231,15.231,0,0,0,69.486,31.745ZM48,62.153A14.153,14.153,0,1,1,62.153,48,14.153,14.153,0,0,1,48,62.153ZM62.713,36.595a3.308,3.308,0,1,1,3.308-3.308A3.308,3.308,0,0,1,62.713,36.595Zm0,0" fill="#287094"/>
      <path id="Path_5" data-name="Path 5" d="M48,0A48,48,0,1,0,96,48,48.005,48.005,0,0,0,48,0ZM75.4,59.364a20.222,20.222,0,0,1-1.281,6.691,14.093,14.093,0,0,1-8.061,8.061,20.236,20.236,0,0,1-6.69,1.281c-2.939.134-3.878.166-11.364.166s-8.424-.032-11.364-.166a20.236,20.236,0,0,1-6.69-1.281,14.093,14.093,0,0,1-8.061-8.061,20.217,20.217,0,0,1-1.281-6.69c-.135-2.94-.167-3.879-.167-11.364s.031-8.424.166-11.364a20.224,20.224,0,0,1,1.28-6.691,14.1,14.1,0,0,1,8.062-8.061A20.241,20.241,0,0,1,36.636,20.6c2.939-.134,3.878-.166,11.364-.166s8.424.032,11.364.167a20.245,20.245,0,0,1,6.691,1.28,14.1,14.1,0,0,1,8.061,8.062A20.22,20.22,0,0,1,75.4,36.636c.134,2.939.166,3.878.166,11.364S75.531,56.424,75.4,59.364Zm0,0" fill="#287094"/>
    </g>
  </g>
</svg>
