<svg xmlns="http://www.w3.org/2000/svg" width="512.005" height="512.006" viewBox="0 0 512.005 512.006">
  <g id="phopne" transform="translate(0)">
    <g id="Group_4" data-name="Group 4">
      <g id="Group_3" data-name="Group 3">
        <path id="Path_7" data-name="Path 7" d="M502.05,407.127l-56.761-37.844L394.83,335.65a22.352,22.352,0,0,0-30.014,4.873l-31.223,40.139a22.237,22.237,0,0,1-28.39,5.888c-21.186-11.785-46.239-22.881-101.517-78.23s-66.445-80.331-78.23-101.517a22.236,22.236,0,0,1,5.888-28.389l40.139-31.223a22.352,22.352,0,0,0,4.873-30.014l-32.6-48.9L104.879,9.956A22.352,22.352,0,0,0,74.786,3.185L29.95,30.083A54.779,54.779,0,0,0,5.074,62.277C-7.187,106.98-9.659,205.593,148.381,363.633s256.644,155.56,301.347,143.3a54.771,54.771,0,0,0,32.194-24.876l26.9-44.835A22.35,22.35,0,0,0,502.05,407.127Z" fill="#287094"/>
        <path id="Path_8" data-name="Path 8" d="M291.309,79.447A150.236,150.236,0,0,1,441.378,229.516a8.828,8.828,0,1,0,17.656,0A167.909,167.909,0,0,0,291.31,61.792a8.828,8.828,0,0,0,0,17.655Z" fill="#287094"/>
        <path id="Path_9" data-name="Path 9" d="M291.309,132.412a97.217,97.217,0,0,1,97.1,97.1,8.828,8.828,0,1,0,17.656,0A114.891,114.891,0,0,0,291.309,114.756a8.828,8.828,0,0,0,0,17.656Z" fill="#287094"/>
        <path id="Path_10" data-name="Path 10" d="M291.309,185.378a44.19,44.19,0,0,1,44.138,44.138,8.828,8.828,0,0,0,17.656,0,61.864,61.864,0,0,0-61.793-61.793,8.827,8.827,0,0,0,0,17.655Z" fill="#287094"/>
      </g>
    </g>
  </g>
</svg>
