<svg xmlns="http://www.w3.org/2000/svg" xmlns:xlink="http://www.w3.org/1999/xlink" width="113" height="96" viewBox="0 0 113 96">
  <defs>
    <clipPath id="clip-path">
      <rect id="Rectangle_9" data-name="Rectangle 9" width="113" height="96" transform="translate(1010 3995)" fill="#287094" stroke="#707070" stroke-width="1"/>
    </clipPath>
  </defs>
  <g id="Mask_Group_3" data-name="Mask Group 3" transform="translate(-1010 -3995)" clip-path="url(#clip-path)">
    <path id="twitter" d="M48,0A48,48,0,1,0,96,48,48.005,48.005,0,0,0,48,0ZM69.916,37.425q.032.709.031,1.424C69.948,53.407,58.866,70.2,38.6,70.2h0a31.185,31.185,0,0,1-16.887-4.949,22.408,22.408,0,0,0,2.628.152,22.106,22.106,0,0,0,13.684-4.716,11.03,11.03,0,0,1-10.293-7.652,10.981,10.981,0,0,0,4.976-.189,11.02,11.02,0,0,1-8.839-10.8c0-.05,0-.094,0-.141a10.941,10.941,0,0,0,4.99,1.378A11.027,11.027,0,0,1,25.45,28.571,31.28,31.28,0,0,0,48.16,40.083,11.023,11.023,0,0,1,66.934,30.035a22.1,22.1,0,0,0,7-2.674,11.06,11.06,0,0,1-4.845,6.094,21.973,21.973,0,0,0,6.327-1.735A22.39,22.39,0,0,1,69.916,37.425Zm0,0" transform="translate(1018.5 3995)" fill="#287094"/>
  </g>
</svg>
